<svg width="327" height="269" viewBox="0 0 327 269" fill="none" xmlns="http://www.w3.org/2000/svg">
<path d="M50.9535 83.0838C1.08744 41.2767 42.1849 -23.946 75.0878 42.6609" stroke="white" stroke-width="10.3335" stroke-linecap="round" stroke-linejoin="round"/>
<path d="M233.718 37.2863C258.23 -11.5485 316.325 -5.1431 280.186 61.0675" stroke="white" stroke-width="10.3335" stroke-linecap="round" stroke-linejoin="round"/>
<path d="M117.886 74.2776C116.949 67.0854 119.889 60.134 121.256 53.7285" stroke="white" stroke-width="10.3335" stroke-linecap="round" stroke-linejoin="round"/>
<path d="M156.771 83.0844C157.255 70.7785 157.893 58.4417 159.138 46.3896" stroke="white" stroke-width="10.3335" stroke-linecap="round" stroke-linejoin="round"/>
<path d="M197.02 74.2785C197.02 67.9098 197.02 61.5513 197.02 55.1973" stroke="white" stroke-width="10.3335" stroke-linecap="round" stroke-linejoin="round"/>
<path d="M108.234 168.216C117.081 165.156 126.448 163.846 135.462 162.345" stroke="white" stroke-width="10.3335" stroke-linecap="round" stroke-linejoin="round"/>
<path d="M193.468 162.346C202.814 160.035 211.558 160.777 220.695 162.346" stroke="white" stroke-width="10.3335" stroke-linecap="round" stroke-linejoin="round"/>
<path d="M149.668 216.66C189.325 191.322 184.398 229.279 153.786 223.354" stroke="white" stroke-width="10.3335" stroke-linecap="round" stroke-linejoin="round"/>
<path d="M165.057 232.799C162.753 264.072 142.533 266.815 124.808 257.361" stroke="white" stroke-width="10.3335" stroke-linecap="round" stroke-linejoin="round"/>
<path d="M163.922 232.799C162.529 274.336 191.789 268.035 207.674 248.074" stroke="white" stroke-width="10.3335" stroke-linecap="round" stroke-linejoin="round"/>
<path d="M58.5145 197.572C41.1438 190.568 22.7774 190.182 5.24316 187.298" stroke="white" stroke-width="10.3335" stroke-linecap="round" stroke-linejoin="round"/>
<path d="M64.4331 232.799C45.3353 238.388 26.2474 242.709 7.61035 250.412" stroke="white" stroke-width="10.3335" stroke-linecap="round" stroke-linejoin="round"/>
<path d="M273.967 182.894C287.582 178.432 300.825 172.061 314.216 166.748" stroke="white" stroke-width="10.3335" stroke-linecap="round" stroke-linejoin="round"/>
<path d="M278.702 223.992C292.739 221.786 308.461 222.564 321.319 223.154" stroke="white" stroke-width="10.3335" stroke-linecap="round" stroke-linejoin="round"/>
</svg>
