<svg width="34" height="34" viewBox="0 0 34 34" fill="none" xmlns="http://www.w3.org/2000/svg">
<g id="edit-svg">
<path id="Vector" d="M30.4655 8.48671L16.673 22.2792C15.2995 23.6526 11.2224 24.2888 10.3116 23.3779C9.40075 22.4671 10.0224 18.3901 11.3959 17.0166L25.2029 3.20965C25.5434 2.83818 25.9556 2.53957 26.4148 2.33182C26.8738 2.12406 27.3703 2.01144 27.8741 2.00083C28.3778 1.99023 28.8786 2.0818 29.346 2.27005C29.8134 2.45831 30.2379 2.73936 30.5937 3.09617C30.9495 3.45299 31.2294 3.87819 31.4164 4.34612C31.6033 4.81407 31.6937 5.31502 31.6817 5.8188C31.6697 6.32257 31.5556 6.81874 31.3467 7.27726C31.1376 7.73579 30.8379 8.14723 30.4655 8.48671Z" stroke="#585B56" stroke-width="3.94298" stroke-linecap="round" stroke-linejoin="round"/>
<path id="Vector_2" d="M15.6041 5.0166H8.37532C6.84156 5.0166 5.37071 5.62587 4.28618 6.71041C3.20166 7.79494 2.59229 9.26587 2.59229 10.7996V25.2572C2.59229 26.791 3.20166 28.2619 4.28618 29.3464C5.37071 30.431 6.84156 31.0402 8.37532 31.0402H24.2787C27.4738 31.0402 28.6159 28.4379 28.6159 25.2572V18.0284" stroke="#585B56" stroke-width="3.94298" stroke-linecap="round" stroke-linejoin="round"/>
</g>
</svg>
