<svg width="219" height="70" viewBox="0 0 219 70" fill="none" xmlns="http://www.w3.org/2000/svg">
<g id="Vector">
<path d="M89.7127 27.9972L88.1615 27.6894L88.3595 26.8795H93.1617C93.5687 26.8795 93.9978 26.8957 94.4489 26.9281C94.9109 26.9497 95.362 27.0199 95.8021 27.1387C96.2531 27.2467 96.6602 27.4249 97.0233 27.6732C97.3863 27.9216 97.6723 28.2672 97.8814 28.7099C98.1014 29.1527 98.2114 29.7197 98.2114 30.4108C98.2114 31.0479 98.1014 31.5879 97.8814 32.0307C97.6723 32.4734 97.3863 32.8352 97.0233 33.116C96.6602 33.3859 96.2531 33.5965 95.8021 33.7477C95.362 33.8989 94.9109 34.0015 94.4489 34.0555C93.9978 34.1095 93.5687 34.1365 93.1617 34.1365H92.1055V37.2628L94.0033 37.5706L93.8383 38.3805H88.1449V37.7326L89.7127 37.2628V27.9972ZM92.1055 28.1754V32.8406H93.1617C93.9428 32.8406 94.5534 32.6624 94.9935 32.306C95.4335 31.9389 95.6535 31.3071 95.6535 30.4108C95.6535 29.6441 95.4555 29.0825 95.0595 28.7261C94.6634 28.359 94.0308 28.1754 93.1617 28.1754H92.1055Z" fill="white"/>
<path d="M101.133 32.9054L99.8788 32.711V30.3622C100.165 30.2326 100.506 30.1138 100.902 30.0058C101.298 29.8978 101.705 29.8115 102.123 29.7467C102.552 29.6819 102.954 29.6495 103.328 29.6495C103.757 29.6495 104.186 29.6927 104.615 29.7791C105.044 29.8654 105.44 30.0112 105.803 30.2164C106.166 30.4108 106.452 30.6754 106.661 31.0101C106.881 31.3341 106.991 31.7391 106.991 32.225V37.279L108.18 37.5544L108.015 38.3805H104.681V37.3114C104.351 37.7002 103.944 37.9971 103.46 38.2023C102.976 38.4075 102.492 38.5101 102.008 38.5101C101.711 38.5101 101.403 38.4831 101.083 38.4291C100.775 38.3859 100.484 38.2941 100.209 38.1537C99.9448 38.0025 99.7303 37.7865 99.5653 37.5058C99.4002 37.225 99.3177 36.8524 99.3177 36.3881C99.3177 35.9129 99.4167 35.5349 99.6148 35.2542C99.8238 34.9626 100.11 34.7304 100.473 34.5576C100.836 34.3848 101.254 34.2391 101.727 34.1203C102.266 33.9799 102.745 33.8665 103.163 33.7801C103.581 33.6829 104.087 33.6019 104.681 33.5371V32.2088C104.681 31.2801 104.054 30.8158 102.8 30.8158C102.569 30.8158 102.343 30.8428 102.123 30.8968C101.914 30.94 101.727 31.0155 101.562 31.1235L101.133 32.9054ZM101.711 36.2585C101.711 36.6041 101.793 36.8578 101.958 37.0198C102.123 37.171 102.371 37.2466 102.701 37.2466C102.965 37.2466 103.223 37.1818 103.476 37.0522C103.729 36.9226 103.96 36.7606 104.169 36.5663C104.378 36.3611 104.549 36.1667 104.681 35.9831V34.5414C104.329 34.5846 104.015 34.6332 103.74 34.6872C103.476 34.7304 103.168 34.8006 102.816 34.8978C102.475 34.9842 102.222 35.1138 102.057 35.2866C101.903 35.4594 101.804 35.6375 101.76 35.8211C101.727 35.9939 101.711 36.1397 101.711 36.2585Z" fill="white"/>
<path d="M114.819 37.2628C114.566 37.6516 114.197 37.9701 113.713 38.2185C113.229 38.4561 112.739 38.5749 112.244 38.5749C111.441 38.5749 110.792 38.3805 110.297 37.9917C109.802 37.5922 109.554 37.0252 109.554 36.2909V31.0263H108.251V30.2974L109.802 29.8115L110.446 27.8514H111.865V29.9572H114.505V31.0101H111.865V35.6591C111.865 36.2531 111.936 36.658 112.079 36.874C112.233 37.09 112.481 37.198 112.822 37.198C113.042 37.198 113.267 37.1548 113.498 37.0684C113.73 36.982 114.005 36.8362 114.324 36.6311L114.819 37.2628Z" fill="white"/>
<path d="M116.205 27.4789C116.304 27.3169 116.442 27.1495 116.618 26.9767C116.805 26.8039 117.003 26.6419 117.212 26.4907C117.421 26.3288 117.608 26.2046 117.773 26.1182C117.938 26.1938 118.119 26.3072 118.317 26.4583C118.526 26.6095 118.719 26.7715 118.895 26.9443C119.082 27.1171 119.214 27.2845 119.291 27.4465C119.203 27.5976 119.066 27.765 118.879 27.9486C118.691 28.1214 118.493 28.2834 118.284 28.4346C118.075 28.5858 117.888 28.7099 117.723 28.8071C117.569 28.7207 117.388 28.602 117.179 28.4508C116.981 28.2996 116.788 28.1376 116.601 27.9648C116.425 27.792 116.293 27.63 116.205 27.4789ZM115.661 30.9454L115.578 30.1192L119.308 29.6009V37.2952L120.545 37.522L120.38 38.3805H115.545V37.8135L116.997 37.3276V31.1883L115.661 30.9454Z" fill="white"/>
<path d="M127.679 37.2628C127.426 37.6516 127.057 37.9701 126.573 38.2185C126.089 38.4561 125.6 38.5749 125.105 38.5749C124.301 38.5749 123.652 38.3805 123.157 37.9917C122.662 37.5922 122.415 37.0252 122.415 36.2909V31.0263H121.111V30.2974L122.662 29.8115L123.306 27.8514H124.725V29.9572H127.365V31.0101H124.725V35.6591C124.725 36.2531 124.797 36.658 124.94 36.874C125.094 37.09 125.341 37.198 125.682 37.198C125.902 37.198 126.128 37.1548 126.359 37.0684C126.59 36.982 126.865 36.8362 127.184 36.6311L127.679 37.2628Z" fill="white"/>
<path d="M130.27 32.9054L129.016 32.711V30.3622C129.302 30.2326 129.643 30.1138 130.039 30.0058C130.435 29.8978 130.842 29.8115 131.26 29.7467C131.689 29.6819 132.091 29.6495 132.465 29.6495C132.894 29.6495 133.323 29.6927 133.752 29.7791C134.181 29.8654 134.577 30.0112 134.94 30.2164C135.303 30.4108 135.589 30.6754 135.798 31.0101C136.018 31.3341 136.128 31.7391 136.128 32.225V37.279L137.317 37.5544L137.152 38.3805H133.818V37.3114C133.488 37.7002 133.081 37.9971 132.597 38.2023C132.113 38.4075 131.629 38.5101 131.145 38.5101C130.848 38.5101 130.54 38.4831 130.221 38.4291C129.913 38.3859 129.621 38.2941 129.346 38.1537C129.082 38.0025 128.867 37.7865 128.702 37.5058C128.537 37.225 128.455 36.8524 128.455 36.3881C128.455 35.9129 128.554 35.5349 128.752 35.2542C128.961 34.9626 129.247 34.7304 129.61 34.5576C129.973 34.3848 130.391 34.2391 130.864 34.1203C131.403 33.9799 131.882 33.8665 132.3 33.7801C132.718 33.6829 133.224 33.6019 133.818 33.5371V32.2088C133.818 31.2801 133.191 30.8158 131.937 30.8158C131.706 30.8158 131.48 30.8428 131.26 30.8968C131.051 30.94 130.864 31.0155 130.699 31.1235L130.27 32.9054ZM130.848 36.2585C130.848 36.6041 130.93 36.8578 131.095 37.0198C131.26 37.171 131.508 37.2466 131.838 37.2466C132.102 37.2466 132.36 37.1818 132.613 37.0522C132.866 36.9226 133.098 36.7606 133.307 36.5663C133.516 36.3611 133.686 36.1667 133.818 35.9831V34.5414C133.466 34.5846 133.152 34.6332 132.877 34.6872C132.613 34.7304 132.305 34.8006 131.953 34.8978C131.612 34.9842 131.359 35.1138 131.194 35.2866C131.04 35.4594 130.941 35.6375 130.897 35.8211C130.864 35.9939 130.848 36.1397 130.848 36.2585Z" fill="white"/>
<path d="M140.149 37.1818C140.314 37.2574 140.517 37.3222 140.759 37.3762C141.001 37.4302 141.249 37.4572 141.502 37.4572C141.931 37.4572 142.321 37.3708 142.673 37.198C143.026 37.0144 143.207 36.7066 143.218 36.2747C143.229 36.0155 143.125 35.7995 142.904 35.6267C142.684 35.454 142.398 35.2974 142.046 35.157C141.705 35.0058 141.331 34.8492 140.924 34.6872C140.528 34.5252 140.154 34.3309 139.802 34.1041C139.45 33.8773 139.158 33.5965 138.927 33.2617C138.707 32.9162 138.597 32.4896 138.597 31.9821C138.597 31.4097 138.779 30.9562 139.142 30.6214C139.505 30.2758 139.967 30.0328 140.528 29.8924C141.089 29.7413 141.667 29.6657 142.261 29.6657C142.8 29.6657 143.312 29.7197 143.796 29.8277C144.291 29.9248 144.687 30.0544 144.984 30.2164V32.4518L143.961 32.63L143.532 31.0101C143.345 30.9562 143.169 30.9076 143.004 30.8644C142.849 30.8212 142.64 30.7996 142.376 30.7996C141.958 30.7996 141.595 30.886 141.287 31.0587C140.99 31.2207 140.842 31.4475 140.842 31.7391C140.842 32.0523 140.952 32.3168 141.172 32.5328C141.403 32.7488 141.694 32.9378 142.046 33.0998C142.409 33.2617 142.789 33.4291 143.185 33.6019C143.581 33.7639 143.955 33.9529 144.307 34.1689C144.67 34.3848 144.962 34.6494 145.182 34.9626C145.413 35.265 145.528 35.6483 145.528 36.1127C145.528 36.7282 145.347 37.2142 144.984 37.5706C144.621 37.9269 144.148 38.1861 143.565 38.3481C142.992 38.4993 142.387 38.5749 141.749 38.5749C141.133 38.5749 140.528 38.5101 139.934 38.3805C139.351 38.2617 138.85 38.1213 138.432 37.9593V35.7401L139.703 35.5457L140.149 37.1818Z" fill="white"/>
<path d="M153.118 37.0522C153.371 37.1278 153.684 37.2034 154.058 37.279C154.432 37.3546 154.906 37.3762 155.478 37.3438C155.808 37.3222 156.11 37.2628 156.385 37.1656C156.671 37.0576 156.897 36.8794 157.062 36.6311C157.238 36.3719 157.326 36.0209 157.326 35.5781C157.326 35.1678 157.188 34.833 156.913 34.5738C156.638 34.3039 156.281 34.0663 155.841 33.8611C155.412 33.6559 154.95 33.4507 154.455 33.2456C153.97 33.0296 153.508 32.7758 153.068 32.4842C152.639 32.1926 152.287 31.8255 152.012 31.3827C151.737 30.9292 151.6 30.3676 151.6 29.6981C151.6 29.1365 151.726 28.6668 151.979 28.2888C152.243 27.9 152.59 27.5868 153.019 27.3493C153.459 27.1117 153.943 26.9389 154.471 26.8309C155.01 26.7229 155.555 26.6689 156.105 26.6689C156.754 26.6689 157.375 26.7337 157.97 26.8633C158.564 26.9821 159.053 27.1495 159.438 27.3655V30.427L158.366 30.589L157.805 28.2078C157.595 28.1214 157.364 28.062 157.111 28.0296C156.858 27.9864 156.605 27.9648 156.352 27.9648C155.989 27.9648 155.637 28.0188 155.296 28.1268C154.966 28.2348 154.691 28.4184 154.471 28.6775C154.262 28.9259 154.157 29.2715 154.157 29.7143C154.157 30.103 154.295 30.4324 154.57 30.7024C154.845 30.9615 155.197 31.1991 155.626 31.4151C156.066 31.6203 156.528 31.8309 157.012 32.0469C157.507 32.2628 157.97 32.522 158.399 32.8244C158.839 33.116 159.196 33.4831 159.471 33.9259C159.746 34.3687 159.884 34.9194 159.884 35.5781C159.884 36.3665 159.68 36.982 159.273 37.4248C158.877 37.8675 158.355 38.1807 157.705 38.3643C157.056 38.5479 156.358 38.6397 155.61 38.6397C154.807 38.6397 154.036 38.5587 153.299 38.3967C152.573 38.2455 151.974 38.0835 151.501 37.9107V34.914L152.573 34.752L153.118 37.0522Z" fill="white"/>
<path d="M163.366 34.5576C163.366 35.1732 163.504 35.6699 163.779 36.0479C164.054 36.4259 164.423 36.7066 164.885 36.8902C165.358 37.063 165.869 37.1494 166.419 37.1494C166.804 37.1494 167.206 37.0846 167.624 36.955C168.053 36.8254 168.477 36.6257 168.895 36.3557L169.423 37.2952C168.884 37.7056 168.301 38.0133 167.673 38.2185C167.046 38.4237 166.458 38.5263 165.908 38.5263C165.281 38.5263 164.676 38.4453 164.092 38.2833C163.509 38.1213 162.987 37.8675 162.525 37.522C162.063 37.1764 161.694 36.7282 161.419 36.1775C161.155 35.6159 161.023 34.9356 161.023 34.1365C161.023 33.3049 161.166 32.603 161.452 32.0307C161.749 31.4583 162.129 30.9993 162.591 30.6538C163.053 30.3082 163.559 30.0598 164.109 29.9086C164.659 29.7467 165.187 29.6657 165.693 29.6657C166.628 29.6657 167.382 29.887 167.954 30.3298C168.537 30.7726 168.966 31.3665 169.241 32.1116C169.516 32.846 169.654 33.6613 169.654 34.5576H163.366ZM167.739 33.2293C167.739 32.657 167.64 32.2034 167.442 31.8687C167.244 31.5231 166.991 31.2747 166.683 31.1235C166.375 30.9615 166.056 30.8806 165.726 30.8806C165.352 30.8806 164.989 30.9669 164.637 31.1397C164.296 31.3125 164.01 31.5717 163.779 31.9173C163.559 32.2628 163.438 32.7002 163.416 33.2293H167.739Z" fill="white"/>
<path d="M178.2 32.8892C178.2 33.5155 178.024 34.0555 177.672 34.509C177.331 34.9626 176.885 35.3136 176.335 35.5619C175.796 35.7995 175.229 35.9183 174.635 35.9183C174.338 35.9183 174.041 35.8859 173.744 35.8211C173.557 35.9183 173.398 36.0155 173.266 36.1127C173.134 36.2099 173.068 36.3611 173.068 36.5663C173.068 36.7498 173.156 36.9064 173.332 37.036C173.508 37.1548 173.777 37.2196 174.14 37.2304H177.111C177.815 37.252 178.321 37.4302 178.629 37.7649C178.948 38.0889 179.107 38.5317 179.107 39.0932C179.107 39.6332 178.953 40.1083 178.645 40.5187C178.337 40.9291 177.93 41.2692 177.424 41.5392C176.929 41.82 176.385 42.0306 175.79 42.171C175.196 42.3114 174.608 42.3815 174.025 42.3815C172.991 42.3815 172.16 42.2034 171.533 41.847C170.917 41.5014 170.609 40.9615 170.609 40.2271C170.609 39.8168 170.735 39.4604 170.988 39.158C171.241 38.8557 171.56 38.6127 171.945 38.4291C171.725 38.2347 171.571 38.0187 171.483 37.7812C171.395 37.5328 171.351 37.2844 171.351 37.036C171.351 36.712 171.461 36.4151 171.681 36.1451C171.901 35.8643 172.182 35.6375 172.523 35.4648C172.204 35.3136 171.896 35.1354 171.599 34.9302C171.302 34.7142 171.06 34.4442 170.873 34.1203C170.697 33.7855 170.609 33.3751 170.609 32.8892C170.609 32.2088 170.779 31.6257 171.12 31.1397C171.472 30.6538 171.945 30.2812 172.539 30.022C173.134 29.7629 173.799 29.6333 174.536 29.6333C174.822 29.6333 175.13 29.6603 175.46 29.7143C175.801 29.7575 176.121 29.8277 176.418 29.9248C176.726 30.022 176.973 30.1462 177.16 30.2974C177.314 30.2974 177.545 30.292 177.853 30.2812C178.161 30.2596 178.475 30.238 178.794 30.2164C178.981 30.2056 179.168 30.1948 179.355 30.184C179.553 30.1624 179.757 30.1462 179.966 30.1354V31.6095L177.903 31.5609C178.013 31.7769 178.09 31.9821 178.134 32.1764C178.178 32.36 178.2 32.5976 178.2 32.8892ZM174.586 34.7196C175.048 34.7196 175.367 34.5792 175.543 34.2985C175.719 34.0177 175.807 33.5479 175.807 32.8892C175.807 32.2844 175.702 31.7931 175.493 31.4151C175.295 31.0371 174.938 30.8482 174.421 30.8482C173.926 30.8482 173.563 31.0209 173.332 31.3665C173.112 31.7121 173.002 32.2034 173.002 32.8406C173.002 33.4237 173.117 33.8827 173.348 34.2175C173.579 34.5522 173.992 34.7196 174.586 34.7196ZM174.256 39.1418C174.014 39.1418 173.783 39.1418 173.563 39.1418C173.354 39.1418 173.172 39.1148 173.018 39.0608C172.919 39.1688 172.826 39.2822 172.738 39.401C172.649 39.5198 172.594 39.6926 172.572 39.9194C172.55 40.2541 172.644 40.5079 172.853 40.6807C173.073 40.8535 173.354 40.9669 173.695 41.0209C174.036 41.0857 174.371 41.1181 174.701 41.1181C175.174 41.1181 175.609 41.0587 176.005 40.9399C176.412 40.8319 176.737 40.6699 176.979 40.4539C177.232 40.2487 177.358 40.0058 177.358 39.725C177.358 39.509 177.27 39.3578 177.094 39.2714C176.929 39.185 176.616 39.1418 176.154 39.1418H174.256Z" fill="white"/>
<path d="M181.153 30.6538L181.318 29.7953H184.701V34.9626C184.701 35.6537 184.811 36.1559 185.031 36.4691C185.262 36.7822 185.68 36.9388 186.285 36.9388C186.725 36.9388 187.165 36.8632 187.605 36.712C188.045 36.5609 188.37 36.3611 188.579 36.1127V30.8806L187.341 30.6538L187.506 29.7953H190.889V37.117L192.226 37.36L192.309 38.1861L188.579 38.5749V37.1656C188.205 37.6084 187.748 37.9485 187.209 38.1861C186.67 38.4129 186.175 38.5263 185.724 38.5263C185.196 38.5263 184.679 38.4345 184.173 38.2509C183.667 38.0565 183.249 37.7434 182.919 37.3114C182.589 36.8794 182.413 36.2909 182.391 35.5457V30.8806L181.153 30.6538Z" fill="white"/>
<path d="M193.482 30.9454L193.4 30.1192L197.129 29.6009V30.9454C197.503 30.5026 197.96 30.1786 198.499 29.9734C199.038 29.7575 199.533 29.6495 199.984 29.6495C200.358 29.6495 200.76 29.7413 201.189 29.9248V32.7758L200.034 32.9216L199.423 31.3017C198.983 31.3017 198.543 31.3827 198.103 31.5447C197.674 31.7067 197.349 31.9119 197.129 32.1602V37.2952L198.697 37.522L198.532 38.3805H193.367V37.8135L194.819 37.3276V31.1883L193.482 30.9454Z" fill="white"/>
<path d="M203.741 32.9054L202.487 32.711V30.3622C202.773 30.2326 203.114 30.1138 203.51 30.0058C203.906 29.8978 204.313 29.8115 204.731 29.7467C205.161 29.6819 205.562 29.6495 205.936 29.6495C206.365 29.6495 206.794 29.6927 207.223 29.7791C207.652 29.8654 208.048 30.0112 208.411 30.2164C208.775 30.4108 209.061 30.6754 209.27 31.0101C209.49 31.3341 209.6 31.7391 209.6 32.225V37.279L210.788 37.5544L210.623 38.3805H207.289V37.3114C206.959 37.7002 206.552 37.9971 206.068 38.2023C205.584 38.4075 205.1 38.5101 204.616 38.5101C204.319 38.5101 204.011 38.4831 203.692 38.4291C203.384 38.3859 203.092 38.2941 202.817 38.1537C202.553 38.0025 202.339 37.7865 202.174 37.5058C202.009 37.225 201.926 36.8524 201.926 36.3881C201.926 35.9129 202.025 35.5349 202.223 35.2542C202.432 34.9626 202.718 34.7304 203.081 34.5576C203.444 34.3848 203.862 34.2391 204.335 34.1203C204.874 33.9799 205.353 33.8665 205.771 33.7801C206.189 33.6829 206.695 33.6019 207.289 33.5371V32.2088C207.289 31.2801 206.662 30.8158 205.408 30.8158C205.177 30.8158 204.951 30.8428 204.731 30.8968C204.522 30.94 204.335 31.0155 204.17 31.1235L203.741 32.9054ZM204.319 36.2585C204.319 36.6041 204.401 36.8578 204.566 37.0198C204.731 37.171 204.979 37.2466 205.309 37.2466C205.573 37.2466 205.832 37.1818 206.085 37.0522C206.338 36.9226 206.569 36.7606 206.778 36.5663C206.987 36.3611 207.157 36.1667 207.289 35.9831V34.5414C206.937 34.5846 206.624 34.6332 206.349 34.6872C206.085 34.7304 205.777 34.8006 205.425 34.8978C205.084 34.9842 204.83 35.1138 204.665 35.2866C204.511 35.4594 204.412 35.6375 204.368 35.8211C204.335 35.9939 204.319 36.1397 204.319 36.2585Z" fill="white"/>
<path d="M213.62 37.1818C213.785 37.2574 213.988 37.3222 214.23 37.3762C214.472 37.4302 214.72 37.4572 214.973 37.4572C215.402 37.4572 215.793 37.3708 216.145 37.198C216.497 37.0144 216.678 36.7066 216.689 36.2747C216.7 36.0155 216.596 35.7995 216.376 35.6267C216.156 35.454 215.87 35.2974 215.518 35.157C215.177 35.0058 214.802 34.8492 214.395 34.6872C213.999 34.5252 213.625 34.3309 213.273 34.1041C212.921 33.8773 212.63 33.5965 212.399 33.2617C212.179 32.9162 212.069 32.4896 212.069 31.9821C212.069 31.4097 212.25 30.9562 212.613 30.6214C212.976 30.2758 213.438 30.0328 213.999 29.8924C214.56 29.7413 215.138 29.6657 215.732 29.6657C216.271 29.6657 216.783 29.7197 217.267 29.8277C217.762 29.9248 218.158 30.0544 218.455 30.2164V32.4518L217.432 32.63L217.003 31.0101C216.816 30.9562 216.64 30.9076 216.475 30.8644C216.321 30.8212 216.112 30.7996 215.848 30.7996C215.43 30.7996 215.067 30.886 214.758 31.0587C214.461 31.2207 214.313 31.4475 214.313 31.7391C214.313 32.0523 214.423 32.3168 214.643 32.5328C214.874 32.7488 215.166 32.9378 215.518 33.0998C215.881 33.2617 216.26 33.4291 216.656 33.6019C217.052 33.7639 217.426 33.9529 217.778 34.1689C218.141 34.3848 218.433 34.6494 218.653 34.9626C218.884 35.265 219 35.6483 219 36.1127C219 36.7282 218.818 37.2142 218.455 37.5706C218.092 37.9269 217.619 38.1861 217.036 38.3481C216.464 38.4993 215.859 38.5749 215.221 38.5749C214.604 38.5749 213.999 38.5101 213.405 38.3805C212.822 38.2617 212.322 38.1213 211.904 37.9593V35.7401L213.174 35.5457L213.62 37.1818Z" fill="white"/>
<path fill-rule="evenodd" clip-rule="evenodd" d="M46.0201 1.24835C44.2812 1.8901 42.1779 3.85138 40.944 5.98233C39.4901 8.49276 39.4213 15.1579 40.8227 17.7801C42.9059 21.6776 46.9917 23.9882 50.6684 23.3478C54.347 22.707 57.9146 18.3324 58.5576 13.6756C58.9314 10.9667 57.5531 6.49636 55.6167 4.13964C53.2732 1.28621 49.2227 0.0661107 46.0201 1.24835ZM24.1523 1.82898C20.3007 3.38705 17.6419 8.641 18.1994 13.5925C19.1705 22.2199 27.5008 26.7504 33.1599 21.7286C37.8534 17.5639 38.3962 10.4235 34.4415 4.87443C32.1589 1.67116 27.7601 0.368968 24.1523 1.82898ZM65.4226 17.5675C61.7445 19.1521 58.8012 22.9816 57.7918 27.4962C57.3492 29.4766 57.3919 30.3884 58.0236 32.4053C59.9059 38.4173 66.0592 40.1683 71.7262 36.305C75.6357 33.6404 77.5612 29.987 77.6103 25.1413C77.6776 18.4944 71.7793 14.8291 65.4226 17.5675ZM4.46191 18.9363C0.724347 21.0527 -0.506606 26.3605 1.68268 30.9207C3.01483 33.6947 6.45275 37.1443 8.93431 38.197C11.7347 39.3847 15.4938 39.3081 17.5805 38.0205C24.4661 33.7713 21.405 22.2285 12.4734 18.763C9.9899 17.7997 6.32946 17.8786 4.46191 18.9363ZM35.5609 27.8907C31.0723 29.4205 28.4798 32.6096 26.8991 38.5459C25.4436 44.011 24.3134 45.8026 18.9588 51.1373C15.4978 54.5851 13.9873 56.4633 13.4106 58.0346C10.6407 65.5837 16.1574 70.3428 25.8209 68.7391C27.7429 68.4203 29.4823 67.9213 29.6861 67.6303C29.8895 67.3393 30.1665 64.0922 30.3016 60.4146C30.5462 53.7581 30.5541 53.7198 32.0729 51.9766C34.3624 49.348 36.42 48.4061 39.7784 48.4485C42.0934 48.4777 43.0031 48.7322 44.6472 49.8109C48.0188 52.0226 48.6952 53.7992 48.8868 60.9437C48.9776 64.3303 49.2129 67.2581 49.4094 67.4497C50.2243 68.2438 57.6454 69.0908 59.8234 68.6383C64.9982 67.5632 67.468 65.0232 67.3054 60.9437C67.1737 57.6515 65.933 55.7071 60.7955 50.7414C55.4424 45.5668 54.3843 43.9695 52.8468 38.7416C51.5393 34.2945 50.4193 32.2187 48.231 30.1872C45.3511 27.513 39.6836 26.4859 35.5609 27.8907ZM44.0209 59.3856C43.2723 60.2235 43.9109 61.5371 45.1802 61.7693C46.4052 61.9937 47.17 60.2522 46.2299 59.3788C45.2592 58.478 44.8314 58.4793 44.0209 59.3856Z" fill="white"/>
<path d="M88.7445 50.9247C88.5216 50.9247 88.4101 50.8613 88.4101 50.7346V45.1191C88.4101 45.027 88.4277 44.9607 88.4629 44.9204C88.504 44.8801 88.5656 44.8599 88.6477 44.8599H89.9503C90.5312 44.8599 90.9625 44.9809 91.2441 45.2228C91.5257 45.4647 91.6666 45.8534 91.6666 46.3891C91.6666 46.7462 91.5932 47.0485 91.4465 47.2962C91.3057 47.5381 91.1091 47.7224 90.8568 47.8491V47.8837C90.9742 47.9413 91.0769 48.0536 91.1649 48.2206C91.2529 48.3876 91.3526 48.6353 91.4641 48.9636L92.0186 50.6655C92.0362 50.7173 92.045 50.7576 92.045 50.7864C92.045 50.8786 91.9306 50.9247 91.7018 50.9247H91.5522C91.47 50.9247 91.3967 50.9132 91.3321 50.8901C91.2734 50.8613 91.2382 50.8268 91.2265 50.7864L90.6984 49.0932C90.5928 48.7649 90.4725 48.5431 90.3376 48.4279C90.2085 48.307 90.0149 48.2465 89.7567 48.2465H89.2022V50.7346C89.2022 50.8613 89.0907 50.9247 88.8678 50.9247H88.7445ZM90.0823 47.5899C90.2936 47.5899 90.4725 47.4863 90.6192 47.2789C90.7718 47.0658 90.848 46.8153 90.848 46.5273C90.848 46.1875 90.7747 45.9341 90.628 45.767C90.4872 45.6 90.2877 45.5165 90.0295 45.5165H89.1934V47.5899H90.0823Z" fill="white"/>
<path d="M93.1777 50.9074C93.0956 50.9074 93.0339 50.8872 92.9929 50.8469C92.9577 50.8066 92.9401 50.7404 92.9401 50.6482V45.1191C92.9401 45.027 92.9577 44.9607 92.9929 44.9204C93.0339 44.8801 93.0956 44.8599 93.1777 44.8599H95.7125C95.824 44.8599 95.8797 44.9463 95.8797 45.1191V45.2573C95.8797 45.4301 95.824 45.5165 95.7125 45.5165H93.7322V47.4863H95.51C95.6215 47.4863 95.6773 47.5727 95.6773 47.7454V47.8837C95.6773 48.0564 95.6215 48.1428 95.51 48.1428H93.7322V50.2508H95.7125C95.7712 50.2508 95.8122 50.271 95.8357 50.3113C95.865 50.3516 95.8797 50.4178 95.8797 50.51V50.6482C95.8797 50.7404 95.865 50.8066 95.8357 50.8469C95.8122 50.8872 95.7712 50.9074 95.7125 50.9074H93.1777Z" fill="white"/>
<path d="M97.2882 50.9247C97.0652 50.9247 96.9537 50.8613 96.9537 50.7346V45.1191C96.9537 45.027 96.9713 44.9607 97.0065 44.9204C97.0476 44.8801 97.1092 44.8599 97.1914 44.8599H99.4797C99.5912 44.8599 99.6469 44.9463 99.6469 45.1191V45.2573C99.6469 45.4301 99.5912 45.5165 99.4797 45.5165H97.7458V47.659H99.3301C99.4416 47.659 99.4973 47.7454 99.4973 47.9182V48.0564C99.4973 48.2292 99.4416 48.3156 99.3301 48.3156H97.7458V50.7346C97.7458 50.8613 97.6344 50.9247 97.4114 50.9247H97.2882Z" fill="white"/>
<path d="M102.559 50.9592C101.931 50.9592 101.444 50.8066 101.098 50.5014C100.758 50.1961 100.587 49.7699 100.587 49.2227V45.0327C100.587 44.906 100.699 44.8426 100.922 44.8426H101.045C101.268 44.8426 101.379 44.906 101.379 45.0327V49.2487C101.379 49.5597 101.488 49.8131 101.705 50.0089C101.928 50.2047 102.213 50.3026 102.559 50.3026C102.899 50.3026 103.178 50.2047 103.395 50.0089C103.618 49.8073 103.729 49.5539 103.729 49.2487V45.0327C103.729 44.906 103.841 44.8426 104.064 44.8426H104.187C104.41 44.8426 104.522 44.906 104.522 45.0327V49.2227C104.522 49.7699 104.351 50.1961 104.011 50.5014C103.671 50.8066 103.187 50.9592 102.559 50.9592Z" fill="white"/>
<path d="M109.142 47.6072C109.301 47.6072 109.38 47.6936 109.38 47.8664V50.3372C109.38 50.5561 109.219 50.7145 108.896 50.8124C108.573 50.9103 108.201 50.9592 107.778 50.9592C106.294 50.9592 105.551 49.9513 105.551 47.9355C105.551 46.8758 105.745 46.0896 106.132 45.577C106.52 45.0644 107.095 44.8081 107.857 44.8081C108.074 44.8081 108.291 44.8369 108.509 44.8945C108.726 44.9521 108.905 45.0241 109.045 45.1105C109.192 45.1911 109.266 45.2689 109.266 45.3437C109.266 45.4244 109.227 45.528 109.151 45.6547C109.075 45.7814 109.007 45.8448 108.949 45.8448C108.931 45.8448 108.869 45.8131 108.764 45.7498C108.658 45.6807 108.529 45.6202 108.377 45.5683C108.23 45.5165 108.06 45.4906 107.866 45.4906C107.338 45.4906 106.957 45.6922 106.722 46.0953C106.487 46.4927 106.37 47.0802 106.37 47.8577C106.37 48.5892 106.481 49.1795 106.704 49.6288C106.927 50.078 107.294 50.3026 107.804 50.3026C108.115 50.3026 108.377 50.2652 108.588 50.1903V48.2638H107.84C107.781 48.2638 107.737 48.2436 107.708 48.2033C107.678 48.163 107.664 48.0968 107.664 48.0046V47.8664C107.664 47.7742 107.678 47.708 107.708 47.6677C107.737 47.6274 107.781 47.6072 107.84 47.6072H109.142Z" fill="white"/>
<path d="M111.068 50.9247C110.845 50.9247 110.733 50.8613 110.733 50.7346V45.0327C110.733 44.906 110.845 44.8426 111.068 44.8426H111.2C111.417 44.8426 111.525 44.906 111.525 45.0327V50.7346C111.525 50.8613 111.417 50.9247 111.2 50.9247H111.068Z" fill="white"/>
<path d="M114.911 50.9592C114.195 50.9592 113.65 50.7029 113.274 50.1903C112.899 49.6777 112.711 48.9031 112.711 47.8664C112.711 45.8275 113.444 44.8081 114.911 44.8081C116.384 44.8081 117.12 45.8275 117.12 47.8664C117.12 48.9031 116.933 49.6777 116.557 50.1903C116.182 50.7029 115.633 50.9592 114.911 50.9592ZM114.92 50.3026C115.847 50.3026 116.311 49.4906 116.311 47.8664C116.311 46.2652 115.847 45.4647 114.92 45.4647C114.457 45.4647 114.107 45.6605 113.873 46.0521C113.644 46.438 113.53 47.0428 113.53 47.8664C113.53 49.4906 113.993 50.3026 114.92 50.3026Z" fill="white"/>
<path d="M119.773 50.9247C119.55 50.9247 119.438 50.8613 119.438 50.7346V45.1191C119.438 45.027 119.456 44.9607 119.491 44.9204C119.532 44.8801 119.594 44.8599 119.676 44.8599H121.964C122.076 44.8599 122.131 44.9463 122.131 45.1191V45.2573C122.131 45.4301 122.076 45.5165 121.964 45.5165H120.23V47.659H121.815C121.926 47.659 121.982 47.7454 121.982 47.9182V48.0564C121.982 48.2292 121.926 48.3156 121.815 48.3156H120.23V50.7346C120.23 50.8613 120.119 50.9247 119.896 50.9247H119.773Z" fill="white"/>
<path d="M123.406 50.9074C123.324 50.9074 123.263 50.8872 123.222 50.8469C123.186 50.8066 123.169 50.7404 123.169 50.6482V45.1191C123.169 45.027 123.186 44.9607 123.222 44.9204C123.263 44.8801 123.324 44.8599 123.406 44.8599H125.941C126.053 44.8599 126.108 44.9463 126.108 45.1191V45.2573C126.108 45.4301 126.053 45.5165 125.941 45.5165H123.961V47.4863H125.739C125.85 47.4863 125.906 47.5727 125.906 47.7454V47.8837C125.906 48.0564 125.85 48.1428 125.739 48.1428H123.961V50.2508H125.941C126 50.2508 126.041 50.271 126.064 50.3113C126.094 50.3516 126.108 50.4178 126.108 50.51V50.6482C126.108 50.7404 126.094 50.8066 126.064 50.8469C126.041 50.8872 126 50.9074 125.941 50.9074H123.406Z" fill="white"/>
<path d="M127.42 50.9074C127.338 50.9074 127.276 50.8872 127.235 50.8469C127.2 50.8066 127.182 50.7404 127.182 50.6482V45.0327C127.182 44.906 127.294 44.8426 127.517 44.8426H127.64C127.863 44.8426 127.974 44.906 127.974 45.0327V50.2508H129.805C129.87 50.2508 129.914 50.271 129.937 50.3113C129.967 50.3516 129.981 50.4178 129.981 50.51V50.6482C129.981 50.7404 129.967 50.8066 129.937 50.8469C129.914 50.8872 129.87 50.9074 129.805 50.9074H127.42Z" fill="white"/>
<path d="M131.094 50.9247C130.871 50.9247 130.76 50.8613 130.76 50.7346V45.0327C130.76 44.906 130.871 44.8426 131.094 44.8426H131.226C131.443 44.8426 131.552 44.906 131.552 45.0327V50.7346C131.552 50.8613 131.443 50.9247 131.226 50.9247H131.094Z" fill="white"/>
<path d="M133.283 50.9247C133.06 50.9247 132.949 50.8613 132.949 50.7346V45.0327C132.949 44.906 133.06 44.8426 133.283 44.8426H133.494C133.582 44.8426 133.653 44.857 133.706 44.8858C133.758 44.9089 133.802 44.9521 133.838 45.0154L135.879 48.8772C135.962 49.0269 136.038 49.2083 136.108 49.4214L136.152 49.4042C136.105 49.2026 136.082 49.0125 136.082 48.834V45.0327C136.082 44.906 136.193 44.8426 136.416 44.8426H136.522C136.745 44.8426 136.856 44.906 136.856 45.0327V50.7346C136.856 50.8613 136.745 50.9247 136.522 50.9247H136.337C136.173 50.9247 136.067 50.8815 136.02 50.7951L133.926 46.8038C133.843 46.654 133.767 46.4726 133.697 46.2595L133.653 46.2768C133.7 46.4783 133.723 46.6684 133.723 46.847V50.7346C133.723 50.8613 133.612 50.9247 133.389 50.9247H133.283Z" fill="white"/>
<path d="M140.129 50.9592C139.413 50.9592 138.868 50.7029 138.492 50.1903C138.117 49.6777 137.929 48.9031 137.929 47.8664C137.929 45.8275 138.662 44.8081 140.129 44.8081C141.602 44.8081 142.338 45.8275 142.338 47.8664C142.338 48.9031 142.15 49.6777 141.775 50.1903C141.399 50.7029 140.851 50.9592 140.129 50.9592ZM140.138 50.3026C141.065 50.3026 141.528 49.4906 141.528 47.8664C141.528 46.2652 141.065 45.4647 140.138 45.4647C139.674 45.4647 139.325 45.6605 139.091 46.0521C138.862 46.438 138.747 47.0428 138.747 47.8664C138.747 49.4906 139.211 50.3026 140.138 50.3026Z" fill="white"/>
</g>
</svg>
