<svg width="143" height="121" viewBox="0 0 143 121" fill="none" xmlns="http://www.w3.org/2000/svg">
<path fill-rule="evenodd" clip-rule="evenodd" d="M84.1525 0.793581C80.9519 1.92898 77.0805 5.39893 74.8093 9.16908C72.1331 13.6106 72.0065 25.4028 74.586 30.0421C78.4204 36.9376 85.9409 41.0257 92.7083 39.8927C99.4793 38.7589 106.046 31.0193 107.229 22.7802C107.918 17.9876 105.381 10.0785 101.816 5.90894C97.5029 0.860558 90.0475 -1.29807 84.1525 0.793581ZM43.9017 1.82085C36.8125 4.57744 31.9184 13.8729 32.9446 22.6333C34.7321 37.8971 50.0652 45.9126 60.4816 37.028C69.1205 29.6595 70.1196 17.0265 62.8405 7.20896C58.639 1.54164 50.5425 -0.762249 43.9017 1.82085ZM119.866 29.666C113.095 32.4694 107.678 39.2447 105.82 47.232C105.005 50.7359 105.084 52.349 106.247 55.9174C109.711 66.554 121.037 69.652 131.468 62.817C138.664 58.1027 142.208 51.6389 142.299 43.0657C142.423 31.3058 131.566 24.821 119.866 29.666ZM7.6589 32.0877C0.779402 35.832 -1.48634 45.2227 2.54335 53.2907C4.99535 58.1987 11.3233 64.3018 15.891 66.1643C21.0454 68.2656 27.9647 68.13 31.8054 65.852C44.4795 58.3343 38.8449 37.9124 22.4052 31.7811C17.8339 30.0767 11.0964 30.2164 7.6589 32.0877ZM64.901 47.9301C56.6391 50.6366 51.8671 56.2789 48.9576 66.7816C46.2787 76.4506 44.1983 79.6204 34.3424 89.0587C27.9719 95.1585 25.1917 98.4816 24.1303 101.262C19.0319 114.618 29.1862 123.038 46.973 120.2C50.5109 119.636 53.7124 118.753 54.0876 118.239C54.4619 117.724 54.9719 111.979 55.2205 105.472C55.6707 93.6955 55.6852 93.6277 58.4808 90.5435C62.6949 85.8929 66.4823 84.2266 72.6638 84.3016C76.925 84.3533 78.5994 84.8035 81.6255 86.712C87.8314 90.625 89.0764 93.7681 89.429 106.408C89.5963 112.4 90.0294 117.58 90.391 117.919C91.891 119.324 105.551 120.822 109.559 120.022C119.084 118.12 123.63 113.626 123.331 106.408C123.089 100.584 120.805 97.1437 111.349 88.3582C101.496 79.2032 99.548 76.3772 96.7181 67.1278C94.3113 59.2599 92.2499 55.5874 88.222 51.9931C82.9211 47.2619 72.4893 45.4446 64.901 47.9301ZM80.4728 103.652C79.0949 105.134 80.2702 107.458 82.6065 107.869C84.8614 108.266 86.2691 105.185 84.5386 103.64C82.7521 102.046 81.9646 102.048 80.4728 103.652Z" fill="white"/>
</svg>
